<svg xmlns="http://www.w3.org/2000/svg" width="102" height="32" viewBox="0 0 102 32">
  <g fill="#297BCC" fill-rule="evenodd">
    <path d="M32.922984 16.1910724C32.922984 15.3211653 33.0359606 14.5624243 33.261917 13.9148268 33.4878735 13.2672293 33.7557893 12.7726784 34.0656724 12.4311594 34.3755556 12.0896403 34.7419224 11.8125629 35.1647838 11.5999189 35.5876452 11.387275 35.9572398 11.25518 36.2735789 11.2036299 36.5899179 11.1520799 36.9062523 11.1263052 37.2225913 11.1263052 38.6106096 11.1263052 39.6322403 11.4420445 40.2875141 12.0735327 40.9427878 12.7050208 41.2704198 13.4718163 41.2704198 14.3739422L41.2704198 21.4008233C41.2704198 21.7165674 41.2413687 22.0161976 41.1832656 22.2997228 41.1251625 22.5832481 41.0025023 22.8989874 40.8152812 23.2469503 40.6280601 23.5949131 40.3795117 23.8913215 40.0696286 24.1361842 39.7597454 24.381047 39.3239788 24.588855 38.7623155 24.7596145 38.2006523 24.9303741 37.5486163 25.0157526 36.8061879 25.0157526 35.7603323 25.0157526 34.8081014 24.8836575 33.9494668 24.6194635L33.9494668 22.5027002C34.7435424 22.7668942 35.605392 22.8989892 36.5350415 22.8989892 37.0902488 22.8989892 37.542155 22.8571054 37.8907735 22.7733366 38.2393921 22.6895677 38.4766428 22.5574727 38.6025328 22.3770475 38.7284229 22.1966224 38.8075065 22.0435854 38.839786 21.9179322 38.8720654 21.7922789 38.888205 21.619911 38.888205 21.4008233L38.888205 20.8595505C38.3588212 20.9626506 37.8584966 21.0174217 37.3872159 21.0238655 35.9475504 21.0238655 34.8436082 20.6082494 34.0753562 19.7770048 33.3071042 18.9457603 32.922984 17.7504614 32.922984 16.1910724zM35.3051989 16.2297347C35.3051989 17.3380608 35.4827334 18.0903581 35.8378079 18.4866491 36.1928823 18.8829401 36.7351697 19.0810826 37.4646863 19.0810826 37.9488788 19.0810826 38.4233802 19.035977 38.888205 18.9457644L38.888205 14.3449454C38.888205 13.6103572 38.3426897 13.2430686 37.2516427 13.2430686L37.2225913 13.2430686C36.5899132 13.2430686 36.1121838 13.4734294 35.7893889 13.934158 35.4665939 14.3948866 35.3051989 15.1600712 35.3051989 16.2297347zM43.8587696 21.1591837L43.8587696 12.0542015C45.1305817 11.4227134 46.4507933 11.106974 47.8194439 11.106974 48.9040349 11.106974 49.7755682 11.3776077 50.43407 11.9188833 51.7058821 11.3776077 52.9292566 11.106974 54.1042302 11.106974 55.3050275 11.106974 56.2362769 11.4227134 56.8980066 12.0542015 57.5597363 12.6856896 57.8905961 13.5749146 57.8905961 14.7219033L57.8905961 21.1591837 56.4670775 21.1591837 56.4670775 14.7219033C56.4670775 14.4448218 56.4412543 14.1983518 56.3896071 13.9824859 56.3379599 13.7666201 56.2330531 13.5362593 56.0748836 13.2913965 55.9167141 13.0465338 55.6617099 12.8580567 55.3098634 12.7259597 54.9580169 12.5938627 54.5238642 12.5278152 54.0073922 12.5278152 53.1745813 12.5278152 52.2610852 12.6921285 51.2668768 13.0207601 51.4799214 13.4975981 51.5864422 14.0646401 51.5864422 14.7219033L51.5864422 21.1591837 50.1629235 21.1591837 50.1629235 14.7219033C50.1629235 14.4319342 50.1354864 14.1790206 50.0806112 13.9631548 50.0257361 13.7472889 49.9192154 13.5201499 49.7610458 13.2817309 49.6028763 13.0433119 49.3430303 12.8580567 48.9814999 12.7259597 48.6199696 12.5938627 48.1745192 12.5278152 47.6451355 12.5278152 46.8381481 12.5278152 46.0505402 12.6470229 45.2822882 12.8854419L45.2822882 21.1591837 43.8587696 21.1591837zM60.2534434 18.1338552C60.2534434 17.6827923 60.3357549 17.2784526 60.5003803 16.9208241 60.6650057 16.5631957 60.8667495 16.273231 61.1056178 16.0509214 61.3444861 15.8286118 61.6479088 15.6385238 62.015895 15.4806518 62.3838813 15.3227798 62.7098993 15.2067939 62.9939588 15.1326907 63.2780184 15.0585875 63.6153341 15.0022055 64.005916 14.9635429 64.3964979 14.9248804 64.6740974 14.9023276 64.8387228 14.8958838 65.0033482 14.8894401 65.1986362 14.8862182 65.4245927 14.8862182L67.0127359 14.9828741C67.0127359 14.1000795 66.7690294 13.4702117 66.281609 13.093252 65.7941886 12.7162923 65.0727527 12.5278152 64.1172797 12.5278152 63.0456004 12.5278152 62.080458 12.6856849 61.2218234 13.0014289L61.2218234 11.6192501C62.1966642 11.277731 63.1876298 11.106974 64.1947501 11.106974 65.5827684 11.106974 66.64152 11.4565426 67.3710366 12.1556901 68.1005531 12.8548377 68.465306 13.8777687 68.465306 15.2245138L68.465306 18.1918487C68.465306 18.8233368 68.3184365 19.3629933 68.0246931 19.8108344 67.7309497 20.2586755 67.3532852 20.5824694 66.8916884 20.7822258 66.4300917 20.9819823 65.9975529 21.1205209 65.5940592 21.197846 65.1905655 21.2751711 64.7919197 21.3138331 64.3981099 21.3138331 64.0946826 21.3138331 63.7831902 21.2945021 63.4636232 21.2558395 63.1440562 21.217177 62.7825312 21.1285767 62.3790375 20.9900359 61.9755438 20.8514952 61.6253166 20.6742945 61.3283452 20.4584287 61.0313738 20.2425628 60.7779836 19.9332672 60.5681669 19.5305324 60.3583502 19.1277976 60.2534434 18.6622432 60.2534434 18.1338552zM61.676962 18.1338552C61.676962 19.3710564 62.5743185 19.9896477 64.3690585 19.9896477L64.3981099 19.9896477C66.1541144 19.9896477 67.0321035 19.3903874 67.0321035 18.1918487L67.0321035 16.2877282C66.5931024 16.2104032 66.0056244 16.1717412 65.2696519 16.1717412 62.8745133 16.1717412 61.676962 16.8257727 61.676962 18.1338552zM70.595742 13.9776531C70.595742 13.1850711 70.8846392 12.5084868 71.4624421 11.94788 72.0402451 11.3872732 72.9230761 11.106974 74.1109615 11.106974 74.9566843 11.106974 75.8023944 11.3099493 76.6481172 11.715906L76.6481172 13.1464127C75.892777 12.6953498 75.0987133 12.4698217 74.2659023 12.4698217 72.7745896 12.4698217 72.0289445 12.9724272 72.0289445 13.9776531 72.0289445 14.3191722 72.2097069 14.5946387 72.5712373 14.8040608 72.9327676 15.0134828 73.3749901 15.1874617 73.8979179 15.3260024 74.4208457 15.4645432 74.9437657 15.6304674 75.4666935 15.8237801 75.9896214 16.0170928 76.4334578 16.3441085 76.7982161 16.8048371 77.1629744 17.2655657 77.3453508 17.8535496 77.3453508 18.5688066 77.3453508 19.4258262 77.0241746 20.0975777 76.3818127 20.5840813 75.7394507 21.0705849 74.8501639 21.3138331 73.7139257 21.3138331 72.6164229 21.3138331 71.6190014 21.0657522 70.7216314 20.5695829L70.7216314 19.0617515C71.6706486 19.6416895 72.6487026 19.9316542 73.6558229 19.9316542 75.1600474 19.9316542 75.9121484 19.4773762 75.9121484 18.5688066 75.9121484 18.0790811 75.7313859 17.6956833 75.3698555 17.4186018 75.0083252 17.1415203 74.5661027 16.9337123 74.0431749 16.7951715 73.5202471 16.6566308 72.9973271 16.5052047 72.4743993 16.340889 71.9514714 16.1765732 71.507635 15.8994958 71.1428767 15.5096485 70.7781184 15.1198013 70.595742 14.6091413 70.595742 13.9776531zM78.6817152 12.5858087L78.6817152 11.2809546 80.4054317 11.2809546 80.4054317 8.48760019 81.8386341 8.48760019 81.8386341 11.2809546 84.3951573 11.2809546 84.3951573 12.5858087 81.8386341 12.5858087 81.8386341 18.6074689C81.8386341 19.1100819 81.9435409 19.4628723 82.1533576 19.6658506 82.3631743 19.8688289 82.732769 19.9703166 83.2621527 19.9703166 83.6688744 19.9703166 84.0465388 19.8929927 84.3951573 19.7383425L84.3951573 21.081859C83.9755239 21.2365091 83.5558968 21.3138331 83.1362633 21.3138331L83.0878443 21.3138331C82.8231525 21.3138331 82.5649204 21.2848366 82.3131403 21.2268428 82.0613602 21.168849 81.7773049 21.054474 81.4609659 20.8837145 81.1446268 20.7129549 80.8896226 20.4262121 80.6959457 20.0234773 80.5022687 19.6207425 80.4054317 19.1229698 80.4054317 18.5301442L80.4054317 12.5858087 78.6817152 12.5858087zM86.0510872 16.3457218L86.0510872 16.200738C86.0510872 12.8048784 87.5004148 11.106974 90.3991135 11.106974 91.005968 11.106974 91.5563251 11.202018 92.0502014 11.3921088 92.5440777 11.5821996 92.9362677 11.8061168 93.2267832 12.0638671 93.5172986 12.3216173 93.7723028 12.6582985 93.9918034 13.0739208 94.2113039 13.4895431 94.3678571 13.8423335 94.4614677 14.1323025 94.5550782 14.4222716 94.627706 14.773451 94.6793532 15.1858514 94.7310004 15.5853643 94.7568236 15.836667 94.7568236 15.9397671L94.7568236 16.3650529 94.7180884 17.0609751 87.5036572 17.0609751C87.5940398 18.0533136 87.8974625 18.7733926 88.4139344 19.2212336 88.9304064 19.6690747 89.6954189 19.8929919 90.7089951 19.8929919 92.1486606 19.8929919 93.2816539 19.6481328 94.108009 19.1584073L94.108009 20.6275764C93.1525359 21.0850831 91.9937194 21.3138331 90.6315247 21.3138331L90.5734219 21.3138331C89.992391 21.3138331 89.4597873 21.2445637 88.9755949 21.1060229 88.4914024 20.9674822 88.015287 20.7274559 87.5472343 20.3859368 87.0791816 20.0444177 86.7128149 19.5305358 86.448123 18.8442758 86.1834311 18.1580157 86.0510872 17.3251727 86.0510872 16.3457218zM87.5036572 15.7947833L93.2945698 15.7947833C93.2945698 15.5692519 93.2671326 15.3179491 93.2122575 15.0408676 93.1573823 14.7637861 93.0476337 14.4077739 92.8830082 13.9728203 92.7183828 13.5378668 92.4214159 13.1754109 91.9920986 12.8854419 91.5627813 12.5954729 91.0317916 12.4504905 90.3991135 12.4504905 89.4178168 12.4504905 88.7060646 12.7050151 88.2638355 13.2140718 87.8216065 13.7231286 87.5682162 14.5833571 87.5036572 15.7947833zM97.1293546 21.1591837L97.1293546 12.0735327C98.6206673 11.4420445 100.221706 11.1263052 101.93252 11.1263052L101.93252 12.4891529C100.847929 12.5149279 99.721391 12.6856849 98.5528733 13.0014289L98.5528733 21.1591837 97.1293546 21.1591837zM13.1820168 3.90153846L13.1799539 3.8974359 4.3940056 8.90871795C4.00411496 9.11589744 3.68230046 9.43589744 3.46982038 9.82153846L.317688668 8.11076923C.587930326 7.58564103 1.01701632 7.15282051 1.54099633 6.87384615L12.8354473.430769231 12.8395732.436923077C13.2872254.16 13.8173941 0 14.3846953 0 14.916927 0 15.4140891.141538462 15.8431751.385641026L27.1995135 6.86564103C27.7977584 7.17948718 28.2722285 7.69230769 28.5321556 8.31384615L25.3635206 9.97538462C25.1572292 9.51589744 24.7962194 9.13641026 24.3485672 8.9025641L15.5172348 3.8625641C15.1830428 3.67179487 14.797278 3.56307692 14.3826324 3.56307692 13.9411689 3.56307692 13.5306492 3.68615385 13.1820168 3.90153846zM28.7528873 9.29025641C28.7528873 9.33333333 28.7570132 9.37641026 28.7570132 9.41948718L28.7570132 22.5887179C28.7570132 23.7210256 28.0948179 24.7015385 27.1335003 25.1753846L15.9298175 31.6020513C15.6162546 31.7969231 15.2634964 31.934359 14.8880462 32L14.8880462 28.4266667C15.1376587 28.3692308 15.3728308 28.2707692 15.5853109 28.1394872L24.2969943 23.1405128C25.0458319 22.7733333 25.5594973 22.0102564 25.5594973 21.1282051L25.5594973 10.9641026 28.7528873 9.29025641zM.0391953551 9.29025641L3.30066148 10.9641026 3.30066148 21.1282051C3.30066148 22.0102564 3.81432692 22.7733333 4.5631645 23.1405128L4.49302544 23.1405128 13.2067718 28.1394872 13.1242552 28.1394872C13.3367353 28.2707692 13.5719074 28.3692308 13.82152 28.4266667L13.82152 32C13.4440068 31.934359 13.0912486 31.7969231 12.7797487 31.6020513L12.8622652 31.6041026 1.65651948 25.1753846 1.62351287 25.1753846C.660132296 24.7015385 0 23.7210256 0 22.5887179L0 9.41948718C0 9.37641026.0371324417 9.33333333.0391953551 9.29025641z"/>
    <path d="M18.5154865,24.0205918 L22.5780299,21.7035345 L22.5780299,12.4081633 L14.4291486,17.4596157 L6.28026724,12.4081633 L6.28026724,21.7035345 L10.592963,24.1632653 L10.5929628,19.5733453 L14.5542246,22.0289124 L18.5154864,19.5733453 L18.5154865,24.0205918 Z"/>
  </g>
</svg>
