<svg xmlns="http://www.w3.org/2000/svg" width="29" height="32" viewBox="0 0 29 32">
  <g fill="#297BCC" fill-rule="evenodd">
    <path d="M13.1820168,3.90153846 L13.1799539,3.8974359 L4.3940056,8.90871795 C4.00411496,9.11589744 3.68230046,9.43589744 3.46982038,9.82153846 L0.317688668,8.11076923 C0.587930326,7.58564103 1.01701632,7.15282051 1.54099633,6.87384615 L12.8354473,0.430769231 L12.8395732,0.436923077 C13.2872254,0.16 13.8173941,0 14.3846953,0 C14.916927,0 15.4140891,0.141538462 15.8431751,0.385641026 L27.1995135,6.86564103 C27.7977584,7.17948718 28.2722285,7.69230769 28.5321556,8.31384615 L25.3635206,9.97538462 C25.1572292,9.51589744 24.7962194,9.13641026 24.3485672,8.9025641 L15.5172348,3.8625641 C15.1830428,3.67179487 14.797278,3.56307692 14.3826324,3.56307692 C13.9411689,3.56307692 13.5306492,3.68615385 13.1820168,3.90153846 Z M28.7528873,9.29025641 C28.7528873,9.33333333 28.7570132,9.37641026 28.7570132,9.41948718 L28.7570132,22.5887179 C28.7570132,23.7210256 28.0948179,24.7015385 27.1335003,25.1753846 L15.9298175,31.6020513 C15.6162546,31.7969231 15.2634964,31.934359 14.8880462,32 L14.8880462,28.4266667 C15.1376587,28.3692308 15.3728308,28.2707692 15.5853109,28.1394872 L24.2969943,23.1405128 C25.0458319,22.7733333 25.5594973,22.0102564 25.5594973,21.1282051 L25.5594973,10.9641026 L28.7528873,9.29025641 Z M0.0391953551,9.29025641 L3.30066148,10.9641026 L3.30066148,21.1282051 C3.30066148,22.0102564 3.81432692,22.7733333 4.5631645,23.1405128 L4.49302544,23.1405128 L13.2067718,28.1394872 L13.1242552,28.1394872 C13.3367353,28.2707692 13.5719074,28.3692308 13.82152,28.4266667 L13.82152,32 C13.4440068,31.934359 13.0912486,31.7969231 12.7797487,31.6020513 L12.8622652,31.6041026 L1.65651948,25.1753846 L1.62351287,25.1753846 C0.660132296,24.7015385 0,23.7210256 0,22.5887179 L0,9.41948718 C0,9.37641026 0.0371324417,9.33333333 0.0391953551,9.29025641 Z"/>
    <path d="M18.5154865,24.0205918 L22.5780299,21.7035345 L22.5780299,12.4081633 L14.4291486,17.4596157 L6.28026724,12.4081633 L6.28026724,21.7035345 L10.592963,24.1632653 L10.5929628,19.5733453 L14.5542246,22.0289124 L18.5154864,19.5733453 L18.5154865,24.0205918 Z"/>
  </g>
</svg>
